<?xml version="1.0" encoding="iso-8859-1"?>
<!-- Uploaded to: SVG Repo, www.svgrepo.com, Generator: SVG Repo Mixer Tools -->
<svg height="800px" width="800px" version="1.1" id="Layer_1" xmlns="http://www.w3.org/2000/svg" xmlns:xlink="http://www.w3.org/1999/xlink" 
	 viewBox="0 0 512 512" xml:space="preserve">
<g>
	<path style="fill:#ff5851;" d="M256,310.857c-30.299,0-54.857,24.558-54.857,54.857c0,30.299,24.558,54.857,54.857,54.857
		c30.299,0,54.857-24.558,54.857-54.857C310.857,335.415,286.299,310.857,256,310.857"/>
	<path style="fill:#ffffff;" d="M356.571,201.143c-30.299,0-54.857,24.558-54.857,54.857c0,30.299,24.558,54.857,54.857,54.857
		c30.299,0,54.857-24.558,54.857-54.857C411.429,225.701,386.871,201.143,356.571,201.143"/>
	<path style="fill:#999999;" d="M457.143,91.429c-30.299,0-54.857,24.558-54.857,54.857s24.558,54.857,54.857,54.857
		c30.299,0,54.857-24.558,54.857-54.857S487.442,91.429,457.143,91.429"/>
	<path style="fill:#ffffff;" d="M155.429,201.143c-30.299,0-54.857,24.558-54.857,54.857c0,30.299,24.558,54.857,54.857,54.857
		s54.857-24.558,54.857-54.857C210.286,225.701,185.728,201.143,155.429,201.143"/>
	<path style="fill:#999999;" d="M54.857,91.429C24.558,91.429,0,115.986,0,146.286s24.558,54.857,54.857,54.857
		s54.857-24.558,54.857-54.857S85.157,91.429,54.857,91.429"/>
</g>
</svg>