<?xml version="1.0" encoding="utf-8"?>
<!-- Generator: Adobe Illustrator 28.7.1, SVG Export Plug-In . SVG Version: 9.03 Build 54978)  -->
<svg version="1.1" id="uuid-81730f59-7aad-46aa-a12a-56e7551ecab3"
	 xmlns="http://www.w3.org/2000/svg" xmlns:xlink="http://www.w3.org/1999/xlink" x="0px" y="0px" viewBox="0 0 301.6 68.3"
	 style="enable-background:new 0 0 301.6 68.3;" xml:space="preserve">
<style type="text/css">
	.st0{fill:#FFFFFF;}
	.st1{fill:#F15A54;}
</style>
<path class="st0" d="M14.9,0.2h27.6l10.7,41.4L63.8,0.2h27.6v68H74.2V16.3L60.9,68.2H45.4L32.1,16.3v51.9H14.9V0.2z"/>
<path class="st0" d="M163.3,0.3h51.9v14.6h-30.9v11.9h26.4v13.7h-26.4v27.8h-21.1L163.3,0.3L163.3,0.3z"/>
<path class="st0" d="M219.2,0.3h56.3v14.5h-35.2v10.8H273v13.9h-32.7v13.4h36.3v15.4h-57.3L219.2,0.3L219.2,0.3z"/>
<path class="st0" d="M280.6,0.3h21.1v68h-21.1V0.3z"/>
<path class="st0" d="M147.4,0H95.4v68h63.4V0H147.4z M137.7,41.5v11.9h-21.2V14.6h21.2V41.5L137.7,41.5z"/>
<path class="st1" d="M1.8,6.9h21.4v15.3c0,6.2-0.5,11.1-1.6,14.7s-3.1,6.8-6.1,9.6c-3,2.8-6.7,5.1-11.3,6.7L0,44.4
	C4.3,43,7.4,41,9.2,38.5c1.8-2.5,2.8-5.9,2.9-10.2H1.8V6.9z"/>
</svg>
