<?xml version="1.0" encoding="UTF-8"?>
<svg id="uuid-81730f59-7aad-46aa-a12a-56e7551ecab3" xmlns="http://www.w3.org/2000/svg" version="1.1" viewBox="0 0 500 500">
  <!-- Generator: Adobe Illustrator 29.2.0, SVG Export Plug-In . SVG Version: 2.1.0 Build 108)  -->
  <defs>
    <style>
      .st0 {
        fill: #f2f2f3;
      }

      .st1 {
        fill: #f15a54;
      }

      .st2 {
        stroke: #000;
        stroke-miterlimit: 10;
      }
    </style>
  </defs>
  <rect class="st2" width="500" height="500" rx="22" ry="22"/>
  <g>
    <path class="st0" d="M110.8,109.2h114.4l44.2,171.4,43.8-171.4h114.4v281.7h-71.3v-214.8l-54.9,214.8h-64.5l-54.8-214.8v214.8h-71.2V109.2Z"/>
    <path class="st1" d="M56.3,137.2h88.6v63.4c0,25.7-2.2,45.9-6.6,60.7-4.4,14.8-12.8,28.1-25.1,39.9-12.3,11.8-27.9,21-46.8,27.8l-17.4-36.6c17.9-5.9,30.6-14,38.2-24.3,7.6-10.3,11.6-24.4,12-42.3h-42.9v-88.6Z"/>
  </g>
</svg>